<?xml version="1.0" encoding="UTF-8" standalone="no"?>
<!-- Created with Inkscape (http://www.inkscape.org/) -->

<svg
   xmlns:dc="http://purl.org/dc/elements/1.1/"
   xmlns:cc="http://creativecommons.org/ns#"
   xmlns:rdf="http://www.w3.org/1999/02/22-rdf-syntax-ns#"
   xmlns:svg="http://www.w3.org/2000/svg"
   xmlns="http://www.w3.org/2000/svg"
   xmlns:sodipodi="http://sodipodi.sourceforge.net/DTD/sodipodi-0.dtd"
   xmlns:inkscape="http://www.inkscape.org/namespaces/inkscape"
   width="180.62222mm"
   height="180.62222mm"
   viewBox="0 0 640 640"
   id="svg2"
   version="1.1"
   inkscape:version="0.91 r13725"
   sodipodi:docname="instagram.svg"
   inkscape:export-filename="C:\Users\Peter\Documents\Treehouse\Techdegree Projects\Project 09 - Portfolio\images\Raster\instagram.png"
   inkscape:export-xdpi="72"
   inkscape:export-ydpi="72">
  <defs
     id="defs4" />
  <sodipodi:namedview
     id="base"
     pagecolor="#ffffff"
     bordercolor="#666666"
     borderopacity="1.0"
     inkscape:pageopacity="0.0"
     inkscape:pageshadow="2"
     inkscape:zoom="0.84"
     inkscape:cx="322.02958"
     inkscape:cy="304.70217"
     inkscape:document-units="px"
     inkscape:current-layer="layer3"
     showgrid="false"
     fit-margin-top="0"
     fit-margin-left="0"
     fit-margin-right="0"
     fit-margin-bottom="0"
     inkscape:window-width="978"
     inkscape:window-height="863"
     inkscape:window-x="786"
     inkscape:window-y="62"
     inkscape:window-maximized="0"
     showguides="true" />
  <metadata
     id="metadata7">
    <rdf:RDF>
      <cc:Work
         rdf:about="">
        <dc:format>image/svg+xml</dc:format>
        <dc:type
           rdf:resource="http://purl.org/dc/dcmitype/StillImage" />
        <dc:title></dc:title>
      </cc:Work>
    </rdf:RDF>
  </metadata>
  <g
     inkscape:groupmode="layer"
     id="layer3"
     inkscape:label="Circle"
     style="display:inline">
    <g
       transform="matrix(1.0000388,0,0,0.99868742,-0.01239515,0.4200101)"
       id="g4449"
       style="display:inline;fill:#3d96e0;fill-opacity:0.00470037;stroke:#3d96e0;stroke-opacity:1">
      <path
         style="fill:#3d96e0;fill-opacity:1;fill-rule:evenodd;stroke:#3d96e0;stroke-width:1.99872577;stroke-linecap:butt;stroke-linejoin:miter;stroke-miterlimit:4;stroke-dasharray:none;stroke-opacity:1"
         d="M 320 1 C 143.82078 1.000524 1.0001865 143.82111 1 320 C 1.0001875 496.17888 143.82078 638.99948 320 639 C 496.17922 638.99947 638.99981 496.17888 639 320 C 638.99981 143.82112 496.17922 1.0005247 320 1 z M 233.06836 107.5 L 406.93164 107.5 C 476.16333 107.5 532.5 163.83667 532.5 233.06836 L 532.5 406.93164 C 532.5 476.16333 476.16333 532.5 406.93164 532.5 L 233.06836 532.5 C 163.83667 532.5 107.5 476.16333 107.5 406.93164 L 107.5 233.06836 C 107.5 163.83667 163.83667 107.5 233.06836 107.5 z M 233.06836 126.81836 C 174.27846 126.81836 126.81836 174.27847 126.81836 233.06836 L 126.81836 406.93164 C 126.81836 465.72154 174.27846 513.18164 233.06836 513.18164 L 406.93164 513.18164 C 465.72154 513.18164 513.18164 465.72154 513.18164 406.93164 L 513.18164 233.06836 C 513.18164 174.27847 465.72154 126.81836 406.93164 126.81836 L 233.06836 126.81836 z M 435.9082 184.77344 A 19.318182 19.318182 0 0 1 455.22656 204.0918 A 19.318182 19.318182 0 0 1 435.9082 223.4082 A 19.318182 19.318182 0 0 1 416.5918 204.0918 A 19.318182 19.318182 0 0 1 435.9082 184.77344 z M 320 213.75 C 378.56585 213.75 426.25 261.43415 426.25 320 C 426.25 378.56585 378.56585 426.25 320 426.25 C 261.43415 426.25 213.75 378.56585 213.75 320 C 213.75 261.43415 261.43415 213.75 320 213.75 z M 320 233.06836 C 271.87448 233.06836 233.06836 271.87448 233.06836 320 C 233.06836 368.12552 271.87448 406.93164 320 406.93164 C 368.12552 406.93164 406.93164 368.12552 406.93164 320 C 406.93164 271.87448 368.12552 233.06836 320 233.06836 z "
         transform="matrix(0.9999612,0,0,1.0013143,0.01239467,-0.42056212)"
         id="path3634" />
    </g>
  </g>
  <g
     inkscape:groupmode="layer"
     id="layer1"
     inkscape:label="Outline"
     style="display:inline">
    <g
       id="surface1"
       transform="matrix(10,0,0,10,69.999954,65.100754)"
       style="fill:#000000;fill-opacity:0;stroke:#3d96e0;stroke-opacity:1" />
    <g
       id="surface1-1"
       transform="matrix(9.5167286,0,0,9.5167286,82.040848,72.713756)"
       style="stroke:#3d96e0;stroke-opacity:0.00392157" />
  </g>
</svg>
