<?xml version="1.0" encoding="UTF-8" standalone="no"?>
<!-- Created with Inkscape (http://www.inkscape.org/) -->

<svg
   xmlns:dc="http://purl.org/dc/elements/1.1/"
   xmlns:cc="http://creativecommons.org/ns#"
   xmlns:rdf="http://www.w3.org/1999/02/22-rdf-syntax-ns#"
   xmlns:svg="http://www.w3.org/2000/svg"
   xmlns="http://www.w3.org/2000/svg"
   xmlns:sodipodi="http://sodipodi.sourceforge.net/DTD/sodipodi-0.dtd"
   xmlns:inkscape="http://www.inkscape.org/namespaces/inkscape"
   width="180.62222mm"
   height="180.62222mm"
   viewBox="0 0 640 640"
   id="svg2"
   version="1.1"
   inkscape:version="0.91 r13725"
   sodipodi:docname="linkedin.svg"
   inkscape:export-filename="C:\Users\Peter\Documents\Treehouse\Techdegree Projects\Project 09 - Portfolio\images\Raster\github.png"
   inkscape:export-xdpi="72"
   inkscape:export-ydpi="72">
  <defs
     id="defs4" />
  <sodipodi:namedview
     id="base"
     pagecolor="#ffffff"
     bordercolor="#666666"
     borderopacity="1.0"
     inkscape:pageopacity="0.0"
     inkscape:pageshadow="2"
     inkscape:zoom="0.84"
     inkscape:cx="336.35282"
     inkscape:cy="304.70217"
     inkscape:document-units="px"
     inkscape:current-layer="layer3"
     showgrid="false"
     fit-margin-top="0"
     fit-margin-left="0"
     fit-margin-right="0"
     fit-margin-bottom="0"
     inkscape:window-width="1768"
     inkscape:window-height="969"
     inkscape:window-x="-8"
     inkscape:window-y="-8"
     inkscape:window-maximized="1"
     showguides="true" />
  <metadata
     id="metadata7">
    <rdf:RDF>
      <cc:Work
         rdf:about="">
        <dc:format>image/svg+xml</dc:format>
        <dc:type
           rdf:resource="http://purl.org/dc/dcmitype/StillImage" />
        <dc:title></dc:title>
      </cc:Work>
    </rdf:RDF>
  </metadata>
  <g
     inkscape:groupmode="layer"
     id="layer3"
     inkscape:label="Circle"
     style="display:inline">
    <g
       transform="matrix(1.0000388,0,0,0.99868742,-0.01239515,0.4200101)"
       id="g4449"
       style="display:inline;fill:#3d96e0;fill-opacity:0.00470037;stroke:#3d96e0;stroke-opacity:1">
      <path
         style="fill:#3d96e0;fill-opacity:1;fill-rule:evenodd;stroke:#3d96e0;stroke-width:1.99872577;stroke-linecap:butt;stroke-linejoin:miter;stroke-miterlimit:4;stroke-dasharray:none;stroke-opacity:1"
         d="M 320 1 C 143.82078 1.000524 1.0001865 143.82111 1 320 C 1.0001875 496.17888 143.82078 638.99948 320 639 C 496.17922 638.99947 638.99981 496.17888 639 320 C 638.99981 143.82112 496.17922 1.0005247 320 1 z M 160 110 L 480 110 C 507.49516 110 530 132.50483 530 160 L 530 480 C 530 507.49516 507.49516 530 480 530 L 160 530 C 132.50484 530 110 507.49516 110 480 L 110 160 C 110 132.50483 132.50484 110 160 110 z M 160 130 C 143.31516 130 130 143.31516 130 160 L 130 480 C 130 496.68484 143.31516 510 160 510 L 480 510 C 496.68484 510 510 496.68484 510 480 L 510 160 C 510 143.31516 496.68484 130 480 130 L 160 130 z M 210 180.11719 C 231.90443 180.11719 248.8457 195.13835 249.86328 214.14062 A 9.8809878 9.8809878 0 0 1 249.88281 214.66797 C 249.88281 233.96083 232.7301 249.88281 210 249.88281 A 9.8809878 9.8809878 0 0 1 206.95312 249.35547 A 9.8809878 9.8809878 0 0 1 206.91406 249.33594 C 186.31285 247.89609 170.11719 233.33977 170.11719 214.66797 C 170.11719 204.84511 174.59687 195.67171 181.89453 189.53125 C 189.19219 183.39079 199.04779 180.11719 210 180.11719 z M 210 199.88281 C 202.95221 199.88281 197.81169 201.9539 194.60938 204.64844 C 191.40702 207.34298 189.88281 210.49083 189.88281 214.66797 C 189.88281 223.02225 196.14594 230.11719 210 230.11719 C 224.60091 230.11719 229.89803 223.48433 230.01953 214.92188 C 229.4197 206.10037 223.92231 199.88281 210 199.88281 z M 180 260 L 240 260 A 10.001 10.001 0 0 1 250 270 L 250 401.34766 L 250 460 A 10.001 10.001 0 0 1 240 470 L 180 470 A 10.001 10.001 0 0 1 170 460 L 170 270 A 10.001 10.001 0 0 1 180 260 z M 270 260 L 330 260 A 10.001 10.001 0 0 1 340 270 L 340 274.23828 C 351.10853 267.04889 367.10483 260 388.125 260 C 410.24172 260 431.15493 267.80043 446.19141 283.67188 C 461.22788 299.5433 470 323.00181 470 352.61719 L 470 460 A 10.001 10.001 0 0 1 460 470 L 400 470 A 10.001 10.001 0 0 1 390 460 L 390 360 C 390 351.66667 387.79532 343.71924 383.84766 338.41797 C 379.89999 333.11669 374.68166 329.73981 364.82422 329.57031 C 355.26466 329.40057 350.23606 332.64339 346.25 338.04688 C 342.26394 343.45035 340 351.70333 340 360 L 340 460 A 10.001 10.001 0 0 1 330 470 L 270 470 A 10.001 10.001 0 0 1 260 460 L 260 270 A 10.001 10.001 0 0 1 270 260 z M 190 280 L 190 450 L 230 450 L 230 401.34766 L 230 280 L 190 280 z M 280 280 L 280 450 L 320 450 L 320 360 C 320 348.29667 322.83731 336.11293 330.15625 326.19141 C 337.47519 316.26988 349.95534 309.30001 365.17578 309.57031 C 380.31834 309.83076 392.60001 316.65862 399.90234 326.46484 C 407.20468 336.27107 410 348.33333 410 360 L 410 450 L 450 450 L 450 352.61719 C 450 326.88257 442.66572 309.01793 431.67969 297.42188 C 420.69366 285.82581 405.65828 280 388.125 280 C 353.69194 280 337.98828 301.62109 337.98828 301.62109 A 10.001 10.001 0 0 1 320 295.60547 L 320 280 L 280 280 z "
         transform="matrix(0.9999612,0,0,1.0013143,0.01239467,-0.42056212)"
         id="path3634" />
    </g>
    <g
       id="surface1-3"
       transform="matrix(10,0,0,10,70.000086,65.000001)" />
  </g>
  <g
     inkscape:groupmode="layer"
     id="layer1"
     inkscape:label="Outline"
     style="display:inline">
    <g
       id="surface1"
       transform="matrix(10,0,0,10,69.999954,65.100754)"
       style="fill:#000000;fill-opacity:0;stroke:#3d96e0;stroke-opacity:1" />
  </g>
</svg>
