<?xml version="1.0" encoding="UTF-8" standalone="no"?>
<!-- Created with Inkscape (http://www.inkscape.org/) -->

<svg
   xmlns:dc="http://purl.org/dc/elements/1.1/"
   xmlns:cc="http://creativecommons.org/ns#"
   xmlns:rdf="http://www.w3.org/1999/02/22-rdf-syntax-ns#"
   xmlns:svg="http://www.w3.org/2000/svg"
   xmlns="http://www.w3.org/2000/svg"
   xmlns:sodipodi="http://sodipodi.sourceforge.net/DTD/sodipodi-0.dtd"
   xmlns:inkscape="http://www.inkscape.org/namespaces/inkscape"
   width="180.62222mm"
   height="180.62222mm"
   viewBox="0 0 640 640"
   id="svg2"
   version="1.1"
   inkscape:version="0.91 r13725"
   sodipodi:docname="steam.svg"
   inkscape:export-filename="C:\Users\Peter\Documents\Treehouse\Techdegree Projects\Project 09 - Portfolio\images\Raster\github.png"
   inkscape:export-xdpi="72"
   inkscape:export-ydpi="72">
  <defs
     id="defs4" />
  <sodipodi:namedview
     id="base"
     pagecolor="#ffffff"
     bordercolor="#666666"
     borderopacity="1.0"
     inkscape:pageopacity="0.0"
     inkscape:pageshadow="2"
     inkscape:zoom="0.84"
     inkscape:cx="336.35282"
     inkscape:cy="304.70217"
     inkscape:document-units="px"
     inkscape:current-layer="layer3"
     showgrid="false"
     fit-margin-top="0"
     fit-margin-left="0"
     fit-margin-right="0"
     fit-margin-bottom="0"
     inkscape:window-width="1768"
     inkscape:window-height="969"
     inkscape:window-x="-8"
     inkscape:window-y="-8"
     inkscape:window-maximized="1"
     showguides="true" />
  <metadata
     id="metadata7">
    <rdf:RDF>
      <cc:Work
         rdf:about="">
        <dc:format>image/svg+xml</dc:format>
        <dc:type
           rdf:resource="http://purl.org/dc/dcmitype/StillImage" />
        <dc:title></dc:title>
      </cc:Work>
    </rdf:RDF>
  </metadata>
  <g
     inkscape:groupmode="layer"
     id="layer3"
     inkscape:label="Circle"
     style="display:inline">
    <g
       transform="matrix(1.0000388,0,0,0.99868742,-0.01239515,0.4200101)"
       id="g4449"
       style="display:inline;fill:#3d96e0;fill-opacity:0.00470037;stroke:#3d96e0;stroke-opacity:1">
      <path
         style="fill:#3d96e0;fill-opacity:1;fill-rule:evenodd;stroke:#3d96e0;stroke-width:1.99872577;stroke-linecap:butt;stroke-linejoin:miter;stroke-miterlimit:4;stroke-dasharray:none;stroke-opacity:1"
         d="M 320 1 C 143.82078 1.000524 1.0001865 143.82111 1 320 C 1.0001875 496.17888 143.82078 638.99948 320 639 C 496.17922 638.99947 638.99981 496.17888 639 320 C 638.99981 143.82112 496.17922 1.0005247 320 1 z M 190 100 L 450 100 C 499.6 100 540 140.4 540 190 L 540 450 C 540 499.6 499.6 540 450 540 L 190 540 C 140.4 540 100 499.6 100 450 L 100 346.19141 C 142.66141 367.52544 186.77542 391.63284 230 410 C 233.8 410 237.40156 407.89922 239.10156 404.19922 C 241.40156 399.19922 239.19922 393.19844 234.19922 390.89844 L 100 323.80859 L 100 190 C 100 140.4 140.4 100 190 100 z M 385 180 C 343.6 180 310 213.6 310 255 C 310 265.4 312.09141 275.50234 316.19141 284.90234 C 317.69141 288.20234 317.19766 292.00469 315.09766 294.80469 L 303.69141 310.60547 L 272.69531 353.00781 C 269.79531 357.00781 264.4 358.29609 260 355.99609 C 252.2 351.99609 243.8 350 235 350 C 225.8 350 201.92232 352.47859 209.60938 356.30859 L 242.89062 372.89062 C 257.69064 379.99064 264.10703 397.69766 257.20703 412.59766 C 252.40703 423.19766 241.7 430 230 430 C 225.6 430 221.40235 429.10667 217.40234 427.20703 L 217.20703 427.10938 L 216.89453 426.99219 L 180.19531 408.69141 C 181.99531 437.29141 206 460 235 460 C 265.3 460 290 435.3 290 405 C 290 396.7 288.20938 388.70859 284.60938 381.30859 C 282.60936 377.00859 283.79766 371.90391 287.59766 369.00391 L 345.80078 325.09766 C 348.70078 322.99766 352.50078 322.50391 355.80078 324.00391 C 364.90078 328.00391 374.7 330 385 330 C 426.4 330 460 296.4 460 255 C 460 213.6 426.4 180 385 180 z M 385 200 C 415.25721 200 440 224.74279 440 255 C 440 285.25721 415.25721 310 385 310 C 354.74279 310 330 285.25721 330 255 C 330 224.74279 354.74279 200 385 200 z M 385 220 C 365.55159 220 350 235.55159 350 255 C 350 274.44841 365.55159 290 385 290 C 404.44841 290 420 274.44841 420 255 C 420 235.55159 404.44841 220 385 220 z "
         transform="matrix(0.9999612,0,0,1.0013143,0.01239467,-0.42056212)"
         id="path3634" />
    </g>
  </g>
  <g
     inkscape:groupmode="layer"
     id="layer1"
     inkscape:label="Outline"
     style="display:inline">
    <g
       id="surface1"
       transform="matrix(10,0,0,10,69.999954,65.100754)"
       style="fill:#000000;fill-opacity:0;stroke:#3d96e0;stroke-opacity:1" />
  </g>
</svg>
