<?xml version="1.0" encoding="UTF-8" standalone="no"?>
<!-- Created with Inkscape (http://www.inkscape.org/) -->

<svg
   xmlns:dc="http://purl.org/dc/elements/1.1/"
   xmlns:cc="http://creativecommons.org/ns#"
   xmlns:rdf="http://www.w3.org/1999/02/22-rdf-syntax-ns#"
   xmlns:svg="http://www.w3.org/2000/svg"
   xmlns="http://www.w3.org/2000/svg"
   xmlns:sodipodi="http://sodipodi.sourceforge.net/DTD/sodipodi-0.dtd"
   xmlns:inkscape="http://www.inkscape.org/namespaces/inkscape"
   width="180.62222mm"
   height="180.62222mm"
   viewBox="0 0 640 640"
   id="svg2"
   version="1.1"
   inkscape:version="0.91 r13725"
   sodipodi:docname="twitter.svg"
   inkscape:export-filename="C:\Users\Peter\Documents\Treehouse\Techdegree Projects\Project 09 - Portfolio\images\Raster\twitter.png"
   inkscape:export-xdpi="72"
   inkscape:export-ydpi="72">
  <defs
     id="defs4" />
  <sodipodi:namedview
     id="base"
     pagecolor="#ffffff"
     bordercolor="#666666"
     borderopacity="1.0"
     inkscape:pageopacity="0.0"
     inkscape:pageshadow="2"
     inkscape:zoom="0.84"
     inkscape:cx="322.02958"
     inkscape:cy="304.70217"
     inkscape:document-units="px"
     inkscape:current-layer="layer3"
     showgrid="false"
     fit-margin-top="0"
     fit-margin-left="0"
     fit-margin-right="0"
     fit-margin-bottom="0"
     inkscape:window-width="978"
     inkscape:window-height="863"
     inkscape:window-x="786"
     inkscape:window-y="62"
     inkscape:window-maximized="0"
     showguides="true" />
  <metadata
     id="metadata7">
    <rdf:RDF>
      <cc:Work
         rdf:about="">
        <dc:format>image/svg+xml</dc:format>
        <dc:type
           rdf:resource="http://purl.org/dc/dcmitype/StillImage" />
        <dc:title></dc:title>
      </cc:Work>
    </rdf:RDF>
  </metadata>
  <g
     inkscape:groupmode="layer"
     id="layer3"
     inkscape:label="Circle"
     style="display:inline">
    <g
       transform="matrix(1.0000388,0,0,0.99868742,-0.01239515,0.4200101)"
       id="g4449"
       style="display:inline;fill:#3d96e0;fill-opacity:0.00470037;stroke:#3d96e0;stroke-opacity:1">
      <path
         style="fill:#3d96e0;fill-opacity:1;fill-rule:evenodd;stroke:#3d96e0;stroke-width:1.99872577;stroke-linecap:butt;stroke-linejoin:miter;stroke-miterlimit:4;stroke-dasharray:none;stroke-opacity:1"
         d="M 320 1 C 143.82078 1.000524 1.0001865 143.82111 1 320 C 1.0001875 496.17888 143.82078 638.99948 320 639 C 496.17922 638.99947 638.99981 496.17888 639 320 C 638.99981 143.82112 496.17922 1.0005247 320 1 z M 407.69141 124.75781 C 434.86613 124.75781 459.14142 136.3564 477.58008 153.60547 C 496.57636 149.47907 514.5691 142.71419 530.81445 133.08594 C 534.19736 131.04133 538.5102 131.33754 541.5957 133.75391 C 544.6812 136.20743 545.98061 140.3352 544.79102 144.08984 C 541.2966 155.05639 535.49823 164.79467 528.73242 173.82812 C 533.86254 172.08091 539.58708 171.85933 544.49414 169.66602 C 548.36031 167.84446 553.00692 168.84777 555.75781 172.11914 C 558.54596 175.39052 558.80698 180.11098 556.39062 183.64258 C 544.19732 201.93254 528.62049 217.58396 511.18555 230.92969 C 511.25987 233.60627 511.48242 236.24523 511.48242 238.95898 C 511.48242 303.27126 487.13292 372.11971 440.4043 425.13086 C 393.67567 478.14202 324.01158 515.24219 235.20117 515.24219 C 180.40564 515.24219 129.43876 499.0699 86.501953 471.52344 C 82.672957 469.18143 80.999273 464.46058 82.523438 460.22266 C 84.010423 455.98474 88.28708 453.38372 92.748047 453.97852 C 99.66255 454.79638 106.61421 455.16797 113.86328 455.16797 C 147.3577 455.16797 178.39826 445.79945 205.16406 429.88867 C 171.55811 420.66934 144.41908 395.42723 133.78711 362.37891 C 132.82057 359.21906 133.52739 355.76219 135.7207 353.27148 C 137.91401 350.78078 141.22277 349.62796 144.49414 350.18555 C 144.79154 350.25978 145.08932 350.14843 145.38672 350.18555 C 118.62092 331.52384 100.48047 301.07725 100.48047 266.02148 L 100.48047 264.83203 C 100.51764 261.52348 102.2645 258.43855 105.12695 256.72852 C 107.98941 255.01847 111.52023 254.94453 114.45703 256.50586 C 116.76187 257.80698 119.43905 258.4024 121.89258 259.48047 C 109.25317 242.30575 101.07422 221.37613 101.07422 198.51367 C 101.07422 179.62891 106.16797 162.04444 115.05273 146.76562 C 116.61408 144.0147 119.43781 142.19375 122.59766 141.9707 C 125.79468 141.74765 128.8442 143.08546 130.81445 145.57617 C 173.08211 197.43491 235.31185 231.33778 305.68359 238.06641 C 305.34899 234.72069 304.49414 231.37515 304.49414 227.95508 C 304.49414 171.04058 350.77691 124.75781 407.69141 124.75781 z "
         transform="matrix(0.9999612,0,0,1.0013143,0.01239467,-0.42056212)"
         id="path3634" />
    </g>
  </g>
  <g
     inkscape:groupmode="layer"
     id="layer1"
     inkscape:label="Outline"
     style="display:inline">
    <g
       id="surface1"
       transform="matrix(10,0,0,10,69.999954,65.100754)"
       style="fill:#000000;fill-opacity:0;stroke:#3d96e0;stroke-opacity:1" />
    <g
       id="surface1-1"
       transform="matrix(9.5167286,0,0,9.5167286,82.040848,72.713756)"
       style="stroke:#3d96e0;stroke-opacity:0.00392157" />
  </g>
</svg>
